<?xml version="1.0" standalone="no"?>
<!DOCTYPE svg PUBLIC "-//W3C//DTD SVG 20010904//EN"
 "http://www.w3.org/TR/2001/REC-SVG-20010904/DTD/svg10.dtd">
<svg version="1.0" xmlns="http://www.w3.org/2000/svg"
 width="2160.000000pt" height="2160.000000pt" viewBox="0 0 2160.000000 2160.000000"
 preserveAspectRatio="xMidYMid meet">
<metadata>
Created by potrace 1.14, written by Peter Selinger 2001-2017
</metadata>
<g transform="translate(0.000000,2160.000000) scale(0.100000,-0.100000)"
fill="#000000" stroke="none">
<path d="M6495 14726 c-204 -67 -347 -266 -333 -463 7 -96 32 -144 132 -253
192 -208 245 -285 524 -762 120 -205 279 -465 354 -578 218 -332 588 -923 588
-940 0 -15 -1745 -1717 -2145 -2091 -415 -390 -454 -428 -481 -482 -45 -85
-57 -221 -28 -317 21 -72 125 -179 198 -203 62 -21 201 -22 275 -2 114 30 153
59 384 278 122 116 308 292 412 391 105 99 554 536 999 971 445 434 811 790
813 790 13 0 462 -856 673 -1280 131 -264 273 -540 315 -614 160 -281 312
-482 419 -556 58 -40 60 -40 150 -40 84 0 97 3 161 34 138 67 255 221 275 358
15 111 -1 155 -130 358 -296 465 -447 734 -959 1710 l-330 629 212 216 c243
246 340 357 782 890 451 544 638 755 1066 1196 148 153 193 206 225 265 38 71
39 78 39 169 0 115 -21 167 -100 246 -61 61 -138 94 -223 94 -140 0 -376 -173
-752 -551 -261 -262 -484 -509 -1370 -1522 -157 -179 -289 -324 -295 -323 -27
7 -823 1291 -1030 1661 -190 340 -283 475 -411 594 -105 98 -183 135 -289 138
-46 2 -97 -3 -120 -11z"/>
<path d="M13645 14684 c-33 -2 -143 -13 -245 -24 -513 -57 -917 -194 -1207
-409 -107 -81 -174 -157 -226 -260 -39 -79 -42 -88 -42 -171 0 -84 1 -90 35
-138 106 -151 291 -216 460 -162 38 12 105 42 147 67 394 226 753 331 1193
350 179 7 260 -8 391 -74 246 -123 434 -332 458 -509 33 -238 -124 -505 -435
-741 -257 -195 -498 -286 -861 -328 -78 -8 -177 -25 -220 -35 -261 -67 -394
-220 -393 -455 1 -107 47 -190 138 -247 66 -41 119 -47 355 -41 296 8 425 -9
600 -79 143 -56 274 -159 362 -283 100 -141 137 -258 137 -440 1 -314 -112
-609 -320 -836 -230 -250 -646 -370 -1297 -373 -294 -1 -358 6 -505 53 -121
39 -208 99 -375 262 -77 75 -160 146 -183 158 -119 61 -329 80 -454 41 -336
-103 -433 -479 -199 -766 183 -225 660 -429 1174 -501 148 -21 590 -23 792 -4
282 26 568 84 785 158 323 111 551 252 765 474 297 309 483 666 557 1074 31
166 33 552 4 690 -38 183 -124 379 -228 520 -28 39 -100 118 -158 176 l-107
107 86 63 c106 79 273 238 354 339 86 107 141 196 213 345 79 162 124 286 160
440 26 110 28 137 28 315 1 173 -2 205 -23 285 -56 214 -154 380 -325 550
-208 208 -427 325 -722 386 -82 17 -143 21 -354 24 -140 1 -282 1 -315 -1z"/>
</g>
</svg>
