<svg width="36" height="55" viewBox="0 0 36 55" fill="none" xmlns="http://www.w3.org/2000/svg">
<path fill-rule="evenodd" clip-rule="evenodd" d="M6 0C2.68629 0 0 2.68629 0 6V40.9381L4.536e-05 40.7498L36 40.7585L35.9988 45.7585L0 45.7498V48.4138C0 51.7275 2.68629 54.4138 6 54.4138H30C33.3137 54.4138 36 51.7275 36 48.4138V6C36 2.68629 33.3137 0 30 0H6ZM20.6032 48.6854C20.6032 50.1709 19.399 51.3751 17.9135 51.3751C16.4281 51.3751 15.2239 50.1709 15.2239 48.6854C15.2239 47.2 16.4281 45.9958 17.9135 45.9958C19.399 45.9958 20.6032 47.2 20.6032 48.6854ZM13.3448 5.58611C14.2018 5.58611 14.8965 4.89138 14.8965 4.03439C14.8965 3.17739 14.2018 2.48266 13.3448 2.48266C12.4878 2.48266 11.7931 3.17739 11.7931 4.03439C11.7931 4.89138 12.4878 5.58611 13.3448 5.58611ZM19.4483 4.03429C19.4483 4.89128 18.7536 5.58602 17.8966 5.58602C17.0396 5.58602 16.3448 4.89128 16.3448 4.03429C16.3448 3.1773 17.0396 2.48257 17.8966 2.48257C18.7536 2.48257 19.4483 3.1773 19.4483 4.03429ZM22.4483 5.58602C23.3053 5.58602 24 4.89128 24 4.03429C24 3.1773 23.3053 2.48257 22.4483 2.48257C21.5913 2.48257 20.8966 3.1773 20.8966 4.03429C20.8966 4.89128 21.5913 5.58602 22.4483 5.58602Z" fill="white"/>
</svg>
